<svg width="112" height="64" viewBox="0 0 112 64" fill="none" xmlns="http://www.w3.org/2000/svg">
<g clip-path="url(#clip0_2146_2350)">
<path d="M73.4874 0.828003H21.914V15.1432H73.4874V0.828003Z" fill="white" stroke="#231F20" stroke-width="0.734623" stroke-miterlimit="10"/>
<path d="M94.8299 13.7745H0.56868V63.1108H94.8299V13.7745Z" fill="white"/>
<path d="M94.3566 14.2484V62.6369H1.04328V14.2484H94.3566ZM95.3045 13.3005H0.0953827V63.5848H95.3045V13.3005Z" fill="#231F20"/>
<path d="M95.3045 13.3005H0.0953827V38.4427H95.3045V13.3005Z" fill="#231F20" stroke="#231F20" stroke-width="0.183656" stroke-miterlimit="10"/>
<path d="M18.2497 25.9531C19.8175 25.2099 20.6023 23.9625 20.6023 22.2127C20.6023 20.8591 20.1019 19.769 19.1047 18.9424C18.1056 18.1178 16.6325 17.7045 14.6837 17.7045H6.31179V35.3411H14.932C17.0288 35.3411 18.6174 34.8918 19.6999 33.9913C20.7806 33.0908 21.3228 31.832 21.3228 30.2149C21.3228 29.2897 21.0498 28.4366 20.5057 27.6517C19.9616 26.8669 19.2089 26.3019 18.2516 25.955L18.2497 25.9531ZM10.4977 21.0487H14.4107C15.0552 21.0487 15.5538 21.2136 15.9083 21.5435C16.2629 21.8733 16.4411 22.3207 16.4411 22.8819C16.4411 23.4772 16.2629 23.9473 15.9083 24.2943C15.5538 24.6412 15.0533 24.8137 14.4107 24.8137H10.4977V21.0487ZM16.405 31.4775C15.9993 31.8244 15.4268 31.9969 14.6837 31.9969H10.4977V27.9835H14.6837C16.2363 27.9835 17.0117 28.6527 17.0117 29.9893C17.0117 30.6338 16.8088 31.1286 16.405 31.4756V31.4775Z" fill="url(#paint0_linear_2146_2350)"/>
<path d="M27.2656 17.7045H23.0797V35.3411H35.3398V31.6007H27.2656V17.7045Z" fill="url(#paint1_linear_2146_2350)"/>
<path d="M42.2751 17.7045L35.7858 35.3411H40.0703L41.0865 32.2699H48.4175L49.4583 35.3411H53.8926L47.2535 17.7045H42.2751ZM42.2505 28.776L43.2667 25.754C43.3652 25.4735 43.8525 23.9872 44.7283 21.2951C45.4051 23.3767 45.8999 24.8611 46.2146 25.754L47.2308 28.776H42.2524H42.2505Z" fill="url(#paint2_linear_2146_2350)"/>
<path d="M64.9632 31.1799C64.203 31.8074 63.2797 32.1202 62.1896 32.1202C60.7697 32.1202 59.6758 31.633 58.908 30.6585C58.1402 29.6841 57.7553 28.3058 57.7553 26.5219C57.7553 24.7379 58.1383 23.3597 58.908 22.3853C59.6758 21.4108 60.7697 20.9236 62.1896 20.9236C63.2304 20.9236 64.1082 21.1928 64.8267 21.7293C65.5452 22.2658 66.0362 23.0298 66.2997 24.0194H70.5349C70.2221 21.8734 69.2875 20.2127 67.7367 19.0411C66.2182 17.8846 64.3679 17.3064 62.1877 17.3064C59.4957 17.3064 57.3572 18.133 55.7723 19.7842C54.1874 21.4355 53.395 23.682 53.395 26.5219C53.395 29.3618 54.2045 31.5666 55.8216 33.2349C57.4406 34.9032 59.562 35.7374 62.1877 35.7374C64.4324 35.7374 66.3319 35.1099 67.8846 33.8549C69.4202 32.5998 70.3207 30.8329 70.5842 28.5542H66.3983C66.2011 29.6765 65.7215 30.5524 64.9613 31.1799H64.9632Z" fill="url(#paint3_linear_2146_2350)"/>
<path d="M89.0899 17.7045H83.9864L76.6799 25.3332V17.7045H72.494V35.3411H76.6799V30.0651L79.0573 27.7124L84.1361 35.3411H89.0899L82.0053 24.9123L89.0899 17.7045Z" fill="url(#paint4_linear_2146_2350)"/>
<path d="M17.4325 42.0029V45.7434H8.66443V48.9378H16.7633V52.4791H8.66443V59.6377H4.4785V42.001H17.4325V42.0029Z" fill="url(#paint5_linear_2146_2350)"/>
<path d="M33.4819 55.2546L33.6051 57.7324C33.6221 58.5248 33.7871 59.1618 34.0999 59.6396H29.7907C29.5272 59.1448 29.385 58.5002 29.3699 57.7078L29.2959 55.7266C29.2618 54.7522 29.0438 54.0792 28.64 53.7076C28.2343 53.336 27.5878 53.1502 26.6949 53.1502H23.2768V59.6396H19.0908V42.0029H27.438C29.5026 42.0029 31.0837 42.4617 32.1813 43.3774C33.279 44.2931 33.8288 45.5367 33.8288 47.1045C33.8288 49.1349 32.879 50.5321 30.9794 51.2905C31.8875 51.5881 32.5188 52.0412 32.8752 52.6535C33.2297 53.264 33.4326 54.1323 33.4819 55.2546ZM23.2768 45.3452V50.0013H26.9679C27.7774 50.0013 28.4049 49.7985 28.8504 49.3947C29.2959 48.9909 29.5196 48.4088 29.5196 47.6486C29.5196 46.113 28.6438 45.3452 26.8939 45.3452H23.2768Z" fill="url(#paint6_linear_2146_2350)"/>
<path d="M40.045 59.6377H35.8591V42.001H40.045V59.6377Z" fill="url(#paint7_linear_2146_2350)"/>
<path d="M42.7203 42.0029H49.9528C52.859 42.0029 55.0885 42.784 56.6411 44.3442C58.1938 45.9045 58.9692 48.0638 58.9692 50.8222C58.9692 53.5806 58.1919 55.738 56.6411 57.3002C55.0885 58.8604 52.859 59.6415 49.9528 59.6415H42.7203V42.0048V42.0029ZM46.9062 56.0963H49.8788C51.3974 56.0963 52.5671 55.6546 53.3842 54.7712C54.2013 53.8877 54.6107 52.5701 54.6107 50.8203C54.6107 49.0705 54.2013 47.7529 53.3842 46.8695C52.5671 45.986 51.3993 45.5443 49.8788 45.5443H46.9062V56.0963Z" fill="url(#paint8_linear_2146_2350)"/>
<path d="M76.5548 59.6377H72.1205L71.0797 56.5665H63.7486L62.7325 59.6377H58.448L64.9373 42.001H69.9157L76.5529 59.6377H76.5548ZM65.9288 50.0525L64.9127 53.0744H69.891L68.8749 50.0525C68.5602 49.1615 68.0654 47.6752 67.3886 45.5936C66.5127 48.2856 66.0255 49.7719 65.9269 50.0525H65.9288Z" fill="url(#paint9_linear_2146_2350)"/>
<path d="M84.8283 44.5281L86.3146 42.001H90.9214L84.3828 52.7749V59.6358H80.1969V52.7749L73.5843 42.001H78.3162L79.8518 44.5528C80.413 45.5272 80.8433 46.2704 81.1391 46.7823C81.2718 47.0306 81.431 47.3188 81.6225 47.6486C81.8121 47.9785 81.9657 48.2439 82.0813 48.4411C82.1969 48.6382 82.2955 48.8051 82.3789 48.9359C83.3041 47.2353 84.1212 45.7661 84.8302 44.5262L84.8283 44.5281Z" fill="url(#paint10_linear_2146_2350)"/>
<path d="M91.547 18.3737C92.2579 18.3737 92.8342 17.7974 92.8342 17.0864C92.8342 16.3755 92.2579 15.7992 91.547 15.7992C90.8361 15.7992 90.2598 16.3755 90.2598 17.0864C90.2598 17.7974 90.8361 18.3737 91.547 18.3737Z" fill="white"/>
<path d="M107.419 22.2393C107.075 22.1691 106.787 21.9208 106.668 21.5909C106.395 20.8364 105.646 20.37 104.846 20.4591C104.497 20.4989 104.146 20.3511 103.93 20.0743C103.435 19.4411 102.58 19.2287 101.849 19.5624C101.528 19.7065 101.149 19.6743 100.859 19.479C100.194 19.0297 99.3178 19.0923 98.7206 19.6345C98.4647 19.8733 98.0912 19.9567 97.7538 19.8601C96.9822 19.6382 96.1651 19.97 95.7688 20.6696C95.5944 20.9748 95.2702 21.1719 94.9195 21.1833C94.1157 21.2099 93.4427 21.7786 93.2816 22.5654C93.2114 22.9085 92.9631 23.1967 92.6332 23.3161C91.8768 23.5891 91.4123 24.3398 91.5014 25.138C91.5412 25.4868 91.3933 25.8375 91.1165 26.0536C90.4871 26.5484 90.271 27.4034 90.6028 28.1352C90.7469 28.4556 90.7165 28.8329 90.5194 29.1248C90.0701 29.7903 90.1326 30.6699 90.6748 31.2633C90.9118 31.523 90.9971 31.8927 90.9004 32.2302C90.6786 33.0018 91.0104 33.8188 91.7099 34.2151C92.0152 34.3876 92.2123 34.7137 92.2237 35.0644C92.2502 35.8682 92.819 36.5412 93.6057 36.7024C93.9489 36.7725 94.237 37.0209 94.3565 37.3507C94.6295 38.1053 95.3802 38.5716 96.1783 38.4825C96.5272 38.4427 96.8779 38.5906 97.094 38.8674C97.5888 39.5006 98.4438 39.711 99.1756 39.3792C99.496 39.2352 99.8733 39.2674 100.165 39.4626C100.831 39.912 101.71 39.8475 102.304 39.3072C102.563 39.0702 102.933 38.983 103.271 39.0816C104.042 39.3034 104.859 38.9716 105.255 38.2721C105.428 37.9669 105.754 37.7697 106.105 37.7583C106.507 37.7451 106.876 37.5953 107.165 37.3526C107.453 37.1081 107.663 36.7706 107.743 36.3763C107.813 36.0331 108.061 35.745 108.391 35.6255C109.148 35.3525 109.612 34.6018 109.523 33.8037C109.483 33.4549 109.631 33.1022 109.908 32.888C110.539 32.3932 110.751 31.5382 110.42 30.8064C110.276 30.486 110.308 30.1069 110.503 29.8168C110.952 29.1514 110.89 28.2717 110.348 27.6783C110.111 27.4186 110.025 27.0489 110.122 26.7115C110.344 25.9399 110.012 25.1228 109.312 24.7266C109.007 24.5541 108.81 24.228 108.799 23.8773C108.772 23.0734 108.203 22.4004 107.417 22.2393M95.7821 22.8952C96.0039 23.1587 95.9717 23.555 95.7082 23.7768C95.4447 23.9986 95.0484 23.9664 94.8266 23.7028C94.6048 23.4393 94.637 23.0431 94.9006 22.8213C95.1641 22.5995 95.5603 22.6317 95.7821 22.8952Z" fill="white"/>
<path d="M107.35 22.588C106.882 22.4914 106.497 22.1596 106.334 21.7103C106.118 21.1131 105.521 20.7415 104.89 20.8136C104.414 20.8667 103.946 20.6695 103.652 20.2922C103.261 19.7917 102.579 19.623 102 19.8846C101.564 20.0818 101.058 20.0382 100.662 19.7709C100.137 19.4145 99.4354 19.4657 98.9653 19.8941C98.6127 20.2164 98.1179 20.332 97.6591 20.1993C97.0486 20.023 96.3984 20.2884 96.0837 20.8401C95.8467 21.2553 95.4125 21.5188 94.9348 21.534C94.2997 21.5548 93.7632 22.0098 93.6343 22.6316C93.5376 23.0999 93.2058 23.4848 92.7565 23.6478C92.1593 23.8639 91.7878 24.4611 91.8598 25.0924C91.9129 25.5682 91.7157 26.0365 91.3385 26.3304C90.838 26.7209 90.6692 27.4034 90.9309 27.9816C91.128 28.4176 91.0844 28.9238 90.8171 29.32C90.4607 29.8471 90.5119 30.5485 90.9403 31.0168C91.2626 31.3694 91.3783 31.8642 91.2456 32.323C91.0693 32.9334 91.3347 33.5837 91.8882 33.8984C92.3034 34.1354 92.5669 34.5695 92.5821 35.0473C92.603 35.6824 93.058 36.2189 93.6798 36.3478C94.148 36.4445 94.5329 36.7762 94.6959 37.2255C94.912 37.8227 95.5092 38.1943 96.1405 38.1222C96.6145 38.0692 97.0846 38.2663 97.3766 38.6436C97.7671 39.1441 98.4496 39.3128 99.0278 39.0512C99.4639 38.854 99.97 38.8976 100.366 39.1649C100.891 39.5213 101.593 39.4702 102.063 39.0417C102.416 38.7194 102.91 38.6038 103.369 38.7365C103.98 38.9128 104.63 38.6474 104.945 38.0957C105.182 37.6805 105.616 37.417 106.093 37.4018C106.729 37.381 107.265 36.926 107.394 36.3042C107.491 35.8359 107.822 35.4511 108.272 35.288C108.869 35.0719 109.241 34.4747 109.168 33.8434C109.115 33.3695 109.313 32.8993 109.69 32.6055C110.19 32.2149 110.359 31.5324 110.097 30.9542C109.9 30.5182 109.944 30.012 110.211 29.6158C110.568 29.0906 110.516 28.3892 110.088 27.919C109.766 27.5664 109.65 27.0716 109.783 26.6128C109.959 26.0024 109.694 25.3521 109.142 25.0374C108.727 24.8004 108.463 24.3663 108.448 23.8886C108.427 23.2535 107.972 22.717 107.35 22.588ZM95.9415 24.0478C95.5263 24.3985 94.9045 24.3455 94.5556 23.9303C94.2049 23.5151 94.258 22.8933 94.6732 22.5444C95.0884 22.1937 95.7102 22.2468 96.059 22.662C96.4097 23.0772 96.3567 23.699 95.9415 24.0478Z" fill="#FF0000"/>
<mask id="mask0_2146_2350" style="mask-type:luminance" maskUnits="userSpaceOnUse" x="90" y="16" width="6" height="8">
<path d="M90.7313 16.6106C90.4773 16.9992 90.4223 17.5263 90.5683 18.2239C90.7863 19.2723 91.4195 20.5216 92.2233 21.4828C92.5645 21.8904 92.9247 22.2354 93.2944 22.5122L93.3722 22.2658C92.0773 21.2553 91.0782 19.5017 90.8033 18.1765C90.6725 17.5433 90.7142 17.0751 90.9323 16.7433C91.1313 16.44 91.4062 16.3186 91.7475 16.3831C92.3807 16.5006 92.9987 17.185 93.1105 17.695C93.2015 18.1159 93.12 18.5709 93.0404 19.0088C92.9437 19.5415 92.8451 20.0913 93.0385 20.6145C93.2432 21.1662 93.6982 21.5112 94.14 21.8449C94.6006 22.1918 95.0367 22.5217 95.1883 23.0639C95.0462 23.0506 94.9059 23.0241 94.7656 22.9881C94.7656 22.9881 94.7352 23.0317 94.7144 23.0999C94.6935 23.1682 94.6878 23.2137 94.6878 23.2137C94.904 23.2706 95.1201 23.3047 95.3343 23.3123C95.3646 23.3123 95.3931 23.3028 95.4158 23.2838C95.4196 23.28 95.4253 23.2762 95.4291 23.2706C95.4519 23.244 95.4632 23.208 95.4575 23.172C95.3343 22.444 94.8016 22.0421 94.2859 21.6534C93.8537 21.3274 93.4442 21.0183 93.2641 20.5311C93.0935 20.0704 93.1826 19.5756 93.2774 19.0505C93.3608 18.5879 93.448 18.1102 93.3456 17.6438C93.2167 17.0504 92.5266 16.2845 91.7949 16.148C91.52 16.0968 91.2678 16.1442 91.0555 16.2845C90.9342 16.3641 90.828 16.4741 90.737 16.6125" fill="white"/>
</mask>
<g mask="url(#mask0_2146_2350)">
<path d="M91.9461 15.2159L88.6181 18.0243L94.1591 24.5905L97.4871 21.7821L91.9461 15.2159Z" fill="url(#paint11_linear_2146_2350)"/>
</g>
<path d="M26.5608 4.37891H32.8397V8.65394C32.8397 8.93641 32.7089 9.20562 32.4738 9.40468C32.2388 9.60374 31.9222 9.71559 31.5904 9.71559H27.8102C27.4784 9.71559 27.1618 9.60374 26.9267 9.40468C26.6916 9.20562 26.5608 8.93452 26.5608 8.65394V4.37891Z" fill="#009444"/>
<path d="M26.5551 4.3826L27.249 3.65651C27.3154 3.58636 27.395 3.52949 27.4822 3.49347C27.5751 3.45365 27.6756 3.4328 27.776 3.4328H31.6302C31.7307 3.4328 31.8312 3.45555 31.9241 3.49536C32.0132 3.53138 32.0928 3.58826 32.1591 3.6584L32.8378 4.38449H26.5551V4.3826Z" fill="#39B54A"/>
<path d="M29.6849 7.62637C29.556 7.62637 29.4252 7.61689 29.2982 7.59982H29.2811C28.6157 7.47281 28.0033 7.16 27.5559 6.71638L27.4687 6.62917L28.0299 6.06422L28.1171 6.15143C28.4488 6.4832 28.9114 6.71638 29.4176 6.81307C29.5048 6.82444 29.5939 6.83013 29.6811 6.83013C30.4224 6.83013 31.0139 6.39599 31.3001 6.13816L31.3911 6.05664L31.9257 6.64813L31.8347 6.72965C31.4632 7.06521 30.6878 7.62826 29.683 7.62826L29.6849 7.62637Z" fill="white"/>
<path d="M35.9281 9.74402V3.431H39.2666C39.8354 3.41583 40.3889 3.59594 40.8231 3.93528C41.0164 4.08505 41.1738 4.27842 41.28 4.49834C41.3842 4.71256 41.4354 4.94954 41.4297 5.1903C41.4335 5.42918 41.3804 5.66615 41.2762 5.88038C41.1681 6.10029 41.0146 6.29366 40.8231 6.44533C41.0885 6.5932 41.3141 6.80742 41.4733 7.06525C41.6288 7.31739 41.7122 7.60556 41.716 7.9013C41.7217 8.15155 41.6648 8.3999 41.553 8.6236C41.4373 8.85299 41.2724 9.05395 41.0657 9.20751C40.6183 9.56202 40.042 9.74971 39.4543 9.73075L35.9281 9.74213V9.74402ZM37.4846 4.74858V5.89175H39.2515C39.3974 5.89933 39.5415 5.85384 39.6572 5.76473C39.7671 5.67942 39.8411 5.5543 39.86 5.41591C39.8657 5.38557 39.8657 5.35524 39.86 5.32491C39.8619 5.24907 39.8486 5.17514 39.8183 5.10499C39.788 5.03485 39.7444 4.97039 39.6875 4.91731C39.6306 4.86233 39.5624 4.82062 39.4884 4.79219C39.4126 4.76375 39.333 4.74858 39.2534 4.74858H37.4865H37.4846ZM37.4846 7.14677V8.42644H39.4486C39.6287 8.42644 39.8031 8.36009 39.9358 8.23875C40.1861 8.01505 40.2069 7.6302 39.9813 7.37996C39.9662 7.36289 39.951 7.34773 39.9358 7.33446C39.8031 7.21313 39.6287 7.14677 39.4486 7.14677H37.4846Z" fill="black"/>
<path d="M42.7094 5.05566H44.1635V7.7041C44.1559 7.82164 44.1748 7.93918 44.2184 8.04914C44.262 8.16099 44.3303 8.26147 44.4156 8.34488C44.5047 8.43209 44.609 8.49844 44.7227 8.54394C44.9597 8.63873 45.2213 8.63873 45.4583 8.54394C45.5739 8.49844 45.6782 8.43019 45.7654 8.34488C45.8507 8.26147 45.919 8.15909 45.9626 8.04914C46.0062 7.93918 46.0251 7.82164 46.0176 7.7041V5.05566H47.4754V9.74398H46.0176V9.26435C45.8545 9.4634 45.646 9.62076 45.409 9.72313C45.1682 9.82929 44.9047 9.88048 44.6412 9.8729C44.3834 9.87669 44.1274 9.83309 43.8867 9.74209C43.6497 9.65299 43.4336 9.51838 43.2497 9.34586C43.0696 9.18093 42.9274 8.98187 42.8307 8.75817C42.7359 8.54015 42.6904 8.30317 42.698 8.0643L42.7075 5.05566H42.7094Z" fill="black"/>
<path d="M48.6241 9.74401V5.05569H50.082V5.47846C50.247 5.30025 50.4479 5.16186 50.6716 5.07086C50.901 4.97607 51.1456 4.93247 51.3939 4.93815C51.6916 4.92678 51.9892 4.98555 52.2584 5.10878C52.5219 5.23011 52.7513 5.414 52.9257 5.64718C53.0907 5.40831 53.3163 5.21873 53.5779 5.09551C53.8471 4.96849 54.1447 4.90972 54.4443 4.92678C54.7002 4.92109 54.9542 4.9628 55.1931 5.05001C55.4282 5.13532 55.6462 5.26423 55.8339 5.43106C56.0159 5.58462 56.16 5.7761 56.2604 5.99222C56.3571 6.20455 56.4045 6.43394 56.3988 6.66713V9.74401H54.9391V7.0387C54.9485 6.92875 54.9334 6.81879 54.8955 6.71642C54.8556 6.61215 54.795 6.51546 54.7173 6.43773C54.6357 6.35621 54.539 6.29176 54.4329 6.24815C54.213 6.15905 53.9665 6.15905 53.7485 6.24815C53.6423 6.29176 53.5456 6.35621 53.4641 6.43773C53.3845 6.51736 53.3238 6.61215 53.2859 6.71642C53.248 6.81879 53.2328 6.93064 53.2423 7.0387V9.74401H51.7844V7.0387C51.7939 6.92875 51.7807 6.81879 51.7408 6.71642C51.701 6.61215 51.6404 6.51546 51.5626 6.43773C51.4811 6.35621 51.3844 6.29176 51.2783 6.24815C51.0584 6.15905 50.8119 6.15905 50.5939 6.24815C50.4877 6.29176 50.391 6.35621 50.3095 6.43773C50.2299 6.51736 50.1692 6.61215 50.1313 6.71642C50.0934 6.81879 50.0782 6.93064 50.0877 7.0387V9.74401H48.6298H48.6241Z" fill="black"/>
<path d="M57.5381 11.7725V5.05567H58.996V5.36658C59.4567 5.04429 60.0311 4.89642 60.6055 4.94761C61.1799 4.99879 61.7108 5.24904 62.0956 5.64905C62.5582 6.13248 62.8046 6.76189 62.7838 7.40646C62.8008 8.05293 62.5544 8.68044 62.0956 9.16577C61.8795 9.39516 61.6179 9.57716 61.3259 9.69659C61.0283 9.81982 60.7079 9.88049 60.3875 9.8748C59.8851 9.87859 59.396 9.72693 58.9979 9.44445V11.7896L57.54 11.7763L57.5381 11.7725ZM59.0168 7.40836C59.0092 7.55244 59.032 7.69463 59.0851 7.82923C59.1382 7.96573 59.2197 8.08895 59.3239 8.19133C59.4301 8.29749 59.5571 8.3828 59.6955 8.43968C59.8377 8.49845 59.9875 8.53257 60.141 8.53636C60.2889 8.53826 60.4368 8.50982 60.5733 8.45295C60.7079 8.39797 60.8273 8.31455 60.9278 8.20839C61.0359 8.10601 61.1231 7.98089 61.1799 7.84439C61.2368 7.70979 61.2634 7.56381 61.2577 7.41784C61.2709 7.27376 61.252 7.12588 61.2027 6.98939C61.1515 6.85099 61.0719 6.72397 60.9676 6.61781C60.8595 6.50975 60.7325 6.42444 60.5903 6.36567C60.2984 6.24813 59.9723 6.24813 59.6823 6.36567C59.5401 6.42254 59.4131 6.50785 59.305 6.61781C59.2007 6.72397 59.1211 6.8491 59.0699 6.98939C59.0206 7.12588 59.0017 7.27186 59.0149 7.41784V7.40836H59.0168Z" fill="black"/>
<path d="M64.2893 5.64719C64.5054 5.4178 64.7689 5.2377 65.059 5.11826C65.3566 4.99693 65.677 4.93627 65.9974 4.94196C66.5017 4.93437 66.9946 5.08414 67.3965 5.36472V5.05381H68.8449V9.74213H67.3965V9.41605C67.0022 9.71558 66.5074 9.87673 65.9974 9.87294C65.677 9.87862 65.3566 9.81796 65.059 9.69663C64.767 9.57719 64.5054 9.39899 64.2874 9.17149C63.8305 8.68616 63.5878 8.05865 63.6068 7.41408C63.5821 6.76572 63.8248 6.13441 64.2874 5.64719H64.2893ZM65.1272 7.39323C65.1158 7.53731 65.1367 7.68139 65.1879 7.81789C65.241 7.95628 65.3225 8.07951 65.4267 8.18378C65.5348 8.28994 65.6618 8.37525 65.8021 8.43023C66.0922 8.54587 66.4145 8.54587 66.7045 8.43023C66.8448 8.37336 66.9737 8.28994 67.0799 8.18378C67.1842 8.07951 67.2657 7.95438 67.3188 7.81789C67.3699 7.68328 67.3908 7.53731 67.3794 7.39323C67.3832 7.24725 67.3567 7.10127 67.2998 6.96667C67.241 6.82828 67.1557 6.70505 67.0477 6.60078C66.9453 6.49651 66.8221 6.41499 66.6875 6.36002C66.5491 6.30504 66.4012 6.2766 66.2533 6.2785C66.1017 6.28229 65.9519 6.31262 65.8116 6.37139C65.6732 6.42826 65.5481 6.51168 65.4419 6.61595C65.3376 6.71832 65.2561 6.83965 65.2012 6.97236C65.1481 7.10507 65.1215 7.24535 65.1272 7.38754V7.39323Z" fill="black"/>
<path d="M96.3054 27.1437L96.6277 25.0109H97.2836V28.0158H96.8362V25.8602L96.5102 28.0158H96.0646L95.712 25.8906V28.0158H95.3006V25.0109H95.9566L96.3035 27.1437H96.3054Z" fill="white"/>
<path d="M99.0483 28.0158H98.5725L98.491 27.4698H97.9109L97.8293 28.0158H97.3952L97.8767 25.0109H98.5687L99.0502 28.0158H99.0483ZM97.9715 27.0622H98.4265L98.199 25.5418L97.9715 27.0622Z" fill="white"/>
<path d="M99.7954 24.9768C100.254 24.9768 100.491 25.2517 100.491 25.7332V25.828H100.044V25.7029C100.044 25.4887 99.9584 25.4072 99.8067 25.4072C99.6551 25.4072 99.5698 25.4887 99.5698 25.7029C99.5698 26.3209 100.493 26.4366 100.493 27.2954C100.493 27.7769 100.252 28.0499 99.7897 28.0499C99.3271 28.0499 99.0863 27.775 99.0863 27.2954V27.1115H99.5338V27.3257C99.5338 27.5399 99.6285 27.6177 99.7783 27.6177C99.9281 27.6177 100.023 27.5399 100.023 27.3257C100.023 26.7077 99.0996 26.592 99.0996 25.7332C99.0996 25.2517 99.3366 24.9768 99.7954 24.9768Z" fill="white"/>
<path d="M101.293 24.9768C101.752 24.9768 101.989 25.2517 101.989 25.7332V25.828H101.542V25.7029C101.542 25.4887 101.456 25.4072 101.305 25.4072C101.153 25.4072 101.068 25.4887 101.068 25.7029C101.068 26.3209 101.991 26.4366 101.991 27.2954C101.991 27.7769 101.75 28.0499 101.288 28.0499C100.825 28.0499 100.584 27.775 100.584 27.2954V27.1115H101.032V27.3257C101.032 27.5399 101.127 27.6177 101.276 27.6177C101.426 27.6177 101.521 27.5399 101.521 27.3257C101.521 26.7077 100.598 26.592 100.598 25.7332C100.598 25.2517 100.835 24.9768 101.293 24.9768Z" fill="white"/>
<path d="M102.156 25.0109H102.628V28.0158H102.156V25.0109Z" fill="white"/>
<path d="M103.578 27.4622L103.938 25.0109H104.372L103.908 28.0158H103.204L102.74 25.0109H103.216L103.576 27.4622H103.578Z" fill="white"/>
<path d="M104.956 26.2773H105.604V26.7058H104.956V27.5854H105.771V28.0139H104.484V25.009H105.771V25.4375H104.956V26.2754V26.2773Z" fill="white"/>
<path d="M93.202 28.9883H93.9489C94.421 28.9883 94.6523 29.2499 94.6523 29.7314V31.2519C94.6523 31.7334 94.421 31.995 93.9489 31.995H93.202V28.9902V28.9883ZM93.674 29.4167V31.5628H93.9395C94.0892 31.5628 94.1802 31.4851 94.1802 31.2708V29.7087C94.1802 29.4945 94.0892 29.4167 93.9395 29.4167H93.674Z" fill="white"/>
<path d="M94.8453 28.9883H95.3173V31.9931H94.8453V28.9883Z" fill="white"/>
<path d="M96.1894 28.9523C96.6482 28.9523 96.8852 29.2272 96.8852 29.7087V29.8035H96.4378V29.6784C96.4378 29.4641 96.3525 29.3826 96.2008 29.3826C96.0491 29.3826 95.9638 29.4641 95.9638 29.6784C95.9638 30.2964 96.8871 30.412 96.8871 31.2708C96.8871 31.7524 96.6463 32.0273 96.1837 32.0273C95.7212 32.0273 95.4804 31.7524 95.4804 31.2708V31.0869H95.9278V31.3012C95.9278 31.5154 96.0226 31.5931 96.1724 31.5931C96.3221 31.5931 96.4169 31.5154 96.4169 31.3012C96.4169 30.6831 95.4937 30.5675 95.4937 29.7087C95.4937 29.2272 95.7307 28.9523 96.1894 28.9523Z" fill="white"/>
<path d="M98.4228 30.8728V31.2728C98.4228 31.7543 98.1821 32.0292 97.7195 32.0292C97.2569 32.0292 97.0161 31.7543 97.0161 31.2728V29.7106C97.0161 29.2291 97.2569 28.9542 97.7195 28.9542C98.1821 28.9542 98.4228 29.2291 98.4228 29.7106V30.0026H97.9773V29.6803C97.9773 29.4661 97.8825 29.3846 97.7327 29.3846C97.583 29.3846 97.4882 29.4661 97.4882 29.6803V31.3031C97.4882 31.5173 97.583 31.5951 97.7327 31.5951C97.8825 31.5951 97.9773 31.5173 97.9773 31.3031V30.8747H98.4228V30.8728Z" fill="white"/>
<path d="M98.5628 29.7087C98.5628 29.2272 98.8168 28.9523 99.2794 28.9523C99.742 28.9523 99.996 29.2272 99.996 29.7087V31.2708C99.996 31.7524 99.742 32.0273 99.2794 32.0273C98.8168 32.0273 98.5628 31.7524 98.5628 31.2708V29.7087ZM99.0349 31.3012C99.0349 31.5154 99.1296 31.5969 99.2794 31.5969C99.4292 31.5969 99.524 31.5154 99.524 31.3012V29.6784C99.524 29.4641 99.4292 29.3826 99.2794 29.3826C99.1296 29.3826 99.0349 29.4641 99.0349 29.6784V31.3012Z" fill="white"/>
<path d="M100.644 28.9883V31.3068C100.644 31.5211 100.739 31.5988 100.889 31.5988C101.039 31.5988 101.134 31.5211 101.134 31.3068V28.9883H101.579V31.2765C101.579 31.758 101.338 32.0329 100.876 32.0329C100.413 32.0329 100.172 31.758 100.172 31.2765V28.9883H100.644Z" fill="white"/>
<path d="M102.216 29.8167V31.9931H101.792V28.9883H102.383L102.869 30.7874V28.9883H103.289V31.9931H102.804L102.216 29.8167Z" fill="white"/>
<path d="M103.384 28.9883H104.844V29.4167H104.351V31.9931H103.879V29.4167H103.386V28.9883H103.384Z" fill="white"/>
<path d="M105.415 30.2528H106.063V30.6812H105.415V31.5609H106.23V31.9893H104.943V28.9845H106.23V29.4129H105.415V30.2509V30.2528Z" fill="white"/>
<path d="M106.414 28.9883H107.161C107.633 28.9883 107.864 29.2499 107.864 29.7314V31.2519C107.864 31.7334 107.633 31.995 107.161 31.995H106.414V28.9902V28.9883ZM106.888 29.4167V31.5628H107.153C107.303 31.5628 107.394 31.4851 107.394 31.2708V29.7087C107.394 29.4945 107.303 29.4167 107.153 29.4167H106.888Z" fill="white"/>
<path d="M97.5377 32.9297C97.9964 32.9297 98.2334 33.2046 98.2334 33.6861V33.7809H97.786V33.6558C97.786 33.4416 97.7007 33.36 97.549 33.36C97.3974 33.36 97.3121 33.4416 97.3121 33.6558C97.3121 34.2738 98.2353 34.3895 98.2353 35.2483C98.2353 35.7298 97.9946 36.0028 97.532 36.0028C97.0694 36.0028 96.8286 35.7279 96.8286 35.2483V35.0644H97.276V35.2786C97.276 35.4928 97.3708 35.5705 97.5206 35.5705C97.6704 35.5705 97.7652 35.4928 97.7652 35.2786C97.7652 34.6606 96.8419 34.5449 96.8419 33.6861C96.8419 33.2046 97.0789 32.9297 97.5377 32.9297Z" fill="white"/>
<path d="M99.9278 35.9687H99.4519L99.3704 35.4227H98.7903L98.7088 35.9687H98.2746L98.7562 32.9638H99.4481L99.9297 35.9687H99.9278ZM98.851 35.017H99.306L99.0785 33.4965L98.851 35.017Z" fill="white"/>
<path d="M100.04 32.9638H100.512V35.5402H101.289V35.9687H100.04V32.9638Z" fill="white"/>
<path d="M101.86 34.2301H102.508V34.6586H101.86V35.5382H102.675V35.9667H101.388V32.9619H102.675V33.3903H101.86V34.2282V34.2301Z" fill="white"/>
<path d="M103.495 32.9297C103.954 32.9297 104.191 33.2046 104.191 33.6861V33.7809H103.744V33.6558C103.744 33.4416 103.658 33.36 103.507 33.36C103.355 33.36 103.27 33.4416 103.27 33.6558C103.27 34.2738 104.193 34.3895 104.193 35.2483C104.193 35.7298 103.952 36.0028 103.49 36.0028C103.027 36.0028 102.786 35.7279 102.786 35.2483V35.0644H103.234V35.2786C103.234 35.4928 103.329 35.5705 103.478 35.5705C103.628 35.5705 103.723 35.4928 103.723 35.2786C103.723 34.6606 102.8 34.5449 102.8 33.6861C102.8 33.2046 103.037 32.9297 103.495 32.9297Z" fill="white"/>
</g>
<defs>
<linearGradient id="paint0_linear_2146_2350" x1="13.8154" y1="27.6214" x2="13.8154" y2="51.3701" gradientUnits="userSpaceOnUse">
<stop stop-color="white"/>
<stop offset="1"/>
</linearGradient>
<linearGradient id="paint1_linear_2146_2350" x1="29.2088" y1="27.6214" x2="29.2088" y2="51.3701" gradientUnits="userSpaceOnUse">
<stop stop-color="white"/>
<stop offset="1"/>
</linearGradient>
<linearGradient id="paint2_linear_2146_2350" x1="44.8383" y1="27.6214" x2="44.8383" y2="51.3701" gradientUnits="userSpaceOnUse">
<stop stop-color="white"/>
<stop offset="1"/>
</linearGradient>
<linearGradient id="paint3_linear_2146_2350" x1="61.9906" y1="27.6215" x2="61.9906" y2="51.3702" gradientUnits="userSpaceOnUse">
<stop stop-color="white"/>
<stop offset="1"/>
</linearGradient>
<linearGradient id="paint4_linear_2146_2350" x1="80.7919" y1="27.6214" x2="80.7919" y2="51.3701" gradientUnits="userSpaceOnUse">
<stop stop-color="white"/>
<stop offset="1"/>
</linearGradient>
<linearGradient id="paint5_linear_2146_2350" x1="10.9546" y1="58.0718" x2="10.9546" y2="45.6031" gradientUnits="userSpaceOnUse">
<stop stop-color="#0A2A00"/>
<stop offset="1" stop-color="#009444"/>
</linearGradient>
<linearGradient id="paint6_linear_2146_2350" x1="26.5963" y1="61.4311" x2="26.5963" y2="39.0019" gradientUnits="userSpaceOnUse">
<stop stop-color="#0A2A00"/>
<stop offset="1" stop-color="#009444"/>
</linearGradient>
<linearGradient id="paint7_linear_2146_2350" x1="37.9521" y1="61.4311" x2="37.9521" y2="39.0019" gradientUnits="userSpaceOnUse">
<stop stop-color="#0A2A00"/>
<stop offset="1" stop-color="#009444"/>
</linearGradient>
<linearGradient id="paint8_linear_2146_2350" x1="50.8457" y1="61.4311" x2="50.8457" y2="39.0019" gradientUnits="userSpaceOnUse">
<stop stop-color="#0A2A00"/>
<stop offset="1" stop-color="#009444"/>
</linearGradient>
<linearGradient id="paint9_linear_2146_2350" x1="67.5023" y1="61.4311" x2="67.5023" y2="39.0019" gradientUnits="userSpaceOnUse">
<stop stop-color="#0A2A00"/>
<stop offset="1" stop-color="#009444"/>
</linearGradient>
<linearGradient id="paint10_linear_2146_2350" x1="82.2538" y1="61.4311" x2="82.2538" y2="39.0019" gradientUnits="userSpaceOnUse">
<stop stop-color="#0A2A00"/>
<stop offset="1" stop-color="#009444"/>
</linearGradient>
<linearGradient id="paint11_linear_2146_2350" x1="92.1936" y1="20.5865" x2="94.8668" y2="18.3308" gradientUnits="userSpaceOnUse">
<stop stop-color="#B57E10"/>
<stop offset="0.34" stop-color="#F9DF7B"/>
<stop offset="0.6" stop-color="#FFF3A6"/>
<stop offset="1" stop-color="#B57E10"/>
</linearGradient>
<clipPath id="clip0_2146_2350">
<rect width="111.158" height="64" fill="white"/>
</clipPath>
</defs>
</svg>
