<svg width="193" height="22" viewBox="0 0 193 22" fill="none" xmlns="http://www.w3.org/2000/svg">
<path d="M190.433 16.6258V0H193V16.6258H190.433Z" fill="white"/>
<path d="M181.507 16.8431C179.47 16.8431 177.794 15.8434 177.794 13.4745C177.794 10.823 180.297 9.86679 183.48 9.86679H184.859V9.27999C184.859 7.75868 184.35 6.99803 182.844 6.99803C181.507 6.99803 180.849 7.65002 180.722 8.78014H178.239C178.452 6.12871 180.51 5.02032 182.992 5.02032C185.474 5.02032 187.426 6.06351 187.426 9.17133V16.6258H184.902V15.2348C184.18 16.2128 183.204 16.8431 181.507 16.8431ZM182.122 14.9523C183.692 14.9523 184.859 14.1047 184.859 12.6486V11.5185H183.544C181.592 11.5185 180.34 11.9749 180.34 13.3658C180.34 14.3221 180.849 14.9523 182.122 14.9523Z" fill="white"/>
<path d="M165.692 16.6258V5.25939H168.259V7.06323C168.789 5.95484 170.02 5.02032 171.845 5.02032C174.072 5.02032 175.643 6.34604 175.643 9.47559V16.6258H173.075V9.71466C173.075 7.99775 172.396 7.21536 170.869 7.21536C169.426 7.21536 168.259 8.12815 168.259 9.93199V16.6258H165.692Z" fill="white"/>
<path d="M159.995 16.6258V5.25939H162.562V16.6258H159.995ZM161.247 3.39035C160.398 3.39035 159.719 2.73836 159.719 1.89077C159.719 1.02145 160.398 0.369461 161.247 0.369461C162.096 0.369461 162.775 1.02145 162.775 1.89077C162.775 2.73836 162.096 3.39035 161.247 3.39035Z" fill="white"/>
<path d="M140.455 16.6258V5.25939H143.022V6.99803C143.552 5.93311 144.762 5.02032 146.396 5.02032C147.838 5.02032 148.984 5.65058 149.536 7.06323C150.384 5.65058 151.912 5.02032 153.291 5.02032C155.328 5.02032 156.983 6.30257 156.983 9.43213V16.6258H154.416V9.60599C154.416 7.93255 153.715 7.21536 152.442 7.21536C151.169 7.21536 150.002 8.08468 150.002 9.82332V16.6258H147.435V9.60599C147.435 7.93255 146.714 7.21536 145.462 7.21536C144.189 7.21536 143.022 8.08468 143.022 9.82332V16.6258H140.455Z" fill="white"/>
<path d="M132.022 16.6258V5.25939H134.589V7.38922C135.289 5.95485 136.329 5.10726 138.196 5.08553V7.54136C135.947 7.56309 134.589 8.30201 134.589 10.7144V16.6258H132.022Z" fill="white"/>
<path d="M124.594 16.8431C121.327 16.8431 118.972 14.648 118.972 11.0621V10.8882C118.972 7.36749 121.327 5.02032 124.488 5.02032C127.246 5.02032 129.729 6.69377 129.729 10.7578V11.5185H121.602C121.687 13.6701 122.748 14.8871 124.658 14.8871C126.207 14.8871 127.013 14.2569 127.204 13.1485H129.686C129.326 15.5391 127.437 16.8431 124.594 16.8431ZM121.645 9.75812H127.183C127.055 7.80215 126.079 6.93283 124.488 6.93283C122.939 6.93283 121.9 7.99775 121.645 9.75812Z" fill="white"/>
<path d="M112.186 16.6257V3.36861H107.964V1.08665H119.251V3.36861H115.029V16.6257H112.186Z" fill="white"/>
<path d="M22.3251 16.7066V0.364899H30.2828C31.6371 0.324845 32.9585 0.789796 33.9941 1.67077C34.4612 2.06782 34.8339 2.56577 35.0843 3.12774C35.3348 3.68972 35.4567 4.30131 35.4409 4.91723C35.4505 5.53223 35.3259 6.14185 35.0759 6.70287C34.8258 7.2639 34.4565 7.76261 33.9941 8.16368C34.6383 8.55709 35.1719 9.11023 35.5442 9.77043C35.9165 10.4306 36.1151 11.1759 36.121 11.9354C36.1331 12.5809 36.0001 13.2208 35.732 13.8071C35.4639 14.3933 35.0676 14.9107 34.5728 15.3205C33.5047 16.2396 32.1348 16.7235 30.7314 16.6774L22.3251 16.7066ZM26.0363 3.77185V6.73378H30.2467C30.5978 6.75105 30.9423 6.63343 31.2108 6.40462C31.4794 6.17582 31.6518 5.85286 31.6935 5.50086C31.7078 5.42371 31.7078 5.34455 31.6935 5.26741C31.6984 5.07275 31.6645 4.87909 31.594 4.69783C31.5234 4.51658 31.4176 4.35139 31.2828 4.21202C31.1479 4.07264 30.9868 3.96189 30.8088 3.8863C30.6309 3.8107 30.4398 3.77179 30.2467 3.77185H26.0363ZM26.0363 9.98023V13.2923H30.7169C31.1524 13.2923 31.5701 13.1179 31.8781 12.8073C32.1861 12.4967 32.3591 12.0755 32.3591 11.6363C32.3591 11.1971 32.1861 10.7759 31.8781 10.4653C31.5701 10.1547 31.1524 9.98023 30.7169 9.98023H26.0363Z" fill="white"/>
<path d="M38.4867 4.57547H41.952V11.4331C41.9348 11.7365 41.9792 12.0403 42.0824 12.3258C42.1857 12.6113 42.3457 12.8725 42.5526 13.0935C42.7596 13.3144 43.009 13.4904 43.2858 13.6107C43.5625 13.731 43.8607 13.7931 44.1621 13.7931C44.4634 13.7931 44.7616 13.731 45.0384 13.6107C45.3151 13.4904 45.5646 13.3144 45.7715 13.0935C45.9784 12.8725 46.1384 12.6113 46.2417 12.3258C46.345 12.0403 46.3894 11.7365 46.3722 11.4331V4.57547H49.8447V16.715H46.3722V15.4748C45.9903 15.9821 45.4935 16.3899 44.9234 16.6641C44.3532 16.9382 43.7263 17.0707 43.095 17.0506C42.4799 17.0613 41.8691 16.9459 41.2995 16.7113C40.73 16.4768 40.2136 16.1281 39.7817 15.6864C39.3494 15.2528 39.0096 14.7347 38.7831 14.1639C38.5567 13.593 38.4485 12.9815 38.465 12.367L38.4867 4.57547Z" fill="white"/>
<path d="M52.5867 16.7072V4.56771H56.0592V5.66202C56.4434 5.20811 56.9235 4.84671 57.4643 4.60433C58.0051 4.36195 58.5928 4.24474 59.1844 4.2613C59.8979 4.23077 60.6074 4.38344 61.2464 4.705C61.8854 5.02655 62.4329 5.50646 62.8378 6.09974C63.2209 5.49155 63.7582 4.9977 64.3942 4.66933C65.0302 4.34097 65.7417 4.19002 66.4549 4.23212C67.0653 4.21874 67.6723 4.32723 68.2409 4.55135C68.8096 4.77546 69.3286 5.11078 69.7682 5.538C70.2059 5.94431 70.5523 6.44027 70.7844 6.99262C71.0165 7.54498 71.1288 8.14098 71.1138 8.74067V16.7072H67.6341V9.70367C67.6578 9.4209 67.6231 9.13625 67.5321 8.86773C67.441 8.59921 67.2957 8.35268 67.1053 8.14373C66.9149 7.93479 66.6835 7.76799 66.4259 7.65388C66.1682 7.53978 65.8899 7.48087 65.6085 7.48087C65.3271 7.48087 65.0488 7.53978 64.7911 7.65388C64.5335 7.76799 64.3021 7.93479 64.1117 8.14373C63.9213 8.35268 63.776 8.59921 63.685 8.86773C63.5939 9.13625 63.5592 9.4209 63.5829 9.70367V16.7072H60.1104V9.70367C60.1341 9.4209 60.0994 9.13625 60.0083 8.86773C59.9173 8.59921 59.772 8.35268 59.5816 8.14373C59.3912 7.93479 59.1598 7.76799 58.9022 7.65388C58.6445 7.53978 58.3662 7.48087 58.0848 7.48087C57.8034 7.48087 57.5251 7.53978 57.2674 7.65388C57.0098 7.76799 56.7784 7.93479 56.588 8.14373C56.3976 8.35268 56.2523 8.59921 56.1612 8.86773C56.0702 9.13625 56.0355 9.4209 56.0592 9.70367V16.7072H52.5867Z" fill="white"/>
<path d="M73.8339 21.9681V4.57584H77.3063V5.37833C78.4048 4.54594 79.7727 4.15909 81.1402 4.29415C82.5077 4.42921 83.7752 5.07638 84.6926 6.10787C85.7954 7.35877 86.3828 8.98714 86.3348 10.6602C86.3748 12.3319 85.7884 13.9575 84.6926 15.2125C84.1882 15.8006 83.5622 16.2699 82.8585 16.5876C82.1548 16.9052 81.3905 17.0634 80.6197 17.051C79.4231 17.0591 78.2578 16.6665 77.3063 15.9348V22.0045L73.8339 21.9681ZM77.357 10.6675C77.3395 11.0377 77.3955 11.4077 77.5215 11.7558C77.6476 12.104 77.8413 12.4233 78.0912 12.695C78.3411 12.9668 78.6423 13.1855 78.9771 13.3384C79.3119 13.4913 79.6735 13.5754 80.0409 13.5857C80.3954 13.59 80.7466 13.5166 81.0701 13.3704C81.3936 13.2243 81.6818 13.009 81.9146 12.7394C82.176 12.4687 82.3806 12.1477 82.5161 11.7954C82.6516 11.4432 82.7152 11.067 82.7032 10.6894C82.7367 10.315 82.6924 9.93763 82.5733 9.5814C82.4542 9.22518 82.2628 8.89788 82.0113 8.62038C81.7598 8.34287 81.4538 8.12123 81.1127 7.9696C80.7716 7.81796 80.4029 7.73965 80.0301 7.73965C79.6573 7.73965 79.2886 7.81796 78.9475 7.9696C78.6064 8.12123 78.3003 8.34287 78.0488 8.62038C77.7973 8.89788 77.606 9.22518 77.4868 9.5814C77.3677 9.93763 77.3235 10.315 77.357 10.6894V10.6675Z" fill="white"/>
<path d="M89.9231 6.10315C90.4285 5.51739 91.0551 5.05051 91.7588 4.73539C92.4625 4.42027 93.2262 4.26459 93.996 4.2793C95.1973 4.2606 96.3707 4.6456 97.3311 5.37361V4.57112H100.782V16.7107H97.3311V15.8644C96.3897 16.6378 95.2102 17.0558 93.996 17.0462C93.227 17.0604 92.4641 16.9052 91.7607 16.5914C91.0572 16.2777 90.4301 15.813 89.9231 15.2297C88.8339 13.9721 88.2552 12.3464 88.3026 10.6774C88.2431 8.99979 88.8229 7.36293 89.9231 6.10315ZM91.9198 10.6263C91.8926 10.9984 91.9419 11.3722 92.0645 11.7243C92.1871 12.0764 92.3804 12.3992 92.6323 12.6725C92.8841 12.9459 93.1892 13.1639 93.5284 13.313C93.8676 13.4621 94.2337 13.539 94.6037 13.539C94.9737 13.539 95.3398 13.4621 95.679 13.313C96.0182 13.1639 96.3233 12.9459 96.5751 12.6725C96.827 12.3992 97.0203 12.0764 97.1429 11.7243C97.2655 11.3722 97.3148 10.9984 97.2877 10.6263C97.2985 10.2488 97.2343 9.873 97.0988 9.52093C96.9634 9.16886 96.7595 8.84768 96.4991 8.57629C96.2599 8.30934 95.9673 8.09654 95.6406 7.95192C95.3139 7.80731 94.9605 7.73417 94.6037 7.73732C94.2398 7.74674 93.8814 7.82875 93.5491 7.97861C93.2168 8.12848 92.9173 8.34323 92.6677 8.61047C92.4182 8.87771 92.2236 9.19215 92.0952 9.53564C91.9669 9.87913 91.9072 10.2449 91.9198 10.6117V10.6263Z" fill="white"/>
<path d="M1.52588e-05 2.36814H15.1173V13.5812C15.1173 14.3198 14.8004 15.0281 14.2364 15.5503C13.6725 16.0725 12.9075 16.3659 12.1099 16.3659H3.00739C2.20978 16.3659 1.44485 16.0725 0.880854 15.5503C0.316862 15.0281 1.52588e-05 14.3198 1.52588e-05 13.5812L1.52588e-05 2.36814Z" fill="#009444"/>
<path d="M0 2.36665L1.67548 0.762135C1.82677 0.610999 2.01957 0.488097 2.23979 0.402425C2.46 0.316753 2.70204 0.270479 2.94821 0.266991L12.2439 0.266991C12.4899 0.271358 12.7315 0.318018 12.9516 0.403623C13.1716 0.489229 13.3646 0.611659 13.5166 0.762135L15.1173 2.36665H0Z" fill="#39B54A"/>
<path fill-rule="evenodd" clip-rule="evenodd" d="M12.8551 8.46231C12.228 9.10717 10.0023 11.2627 6.92513 10.7615L6.90361 10.758L6.88228 10.7535C5.32261 10.4231 3.91672 9.60755 2.87943 8.43049L4.24608 7.29206C5.0229 8.17356 6.07494 8.7869 7.24368 9.0392C9.30702 9.36351 10.9237 7.90152 11.5473 7.26023L12.8551 8.46231Z" fill="white"/>
</svg>
