<svg width="104" height="104" viewBox="0 0 104 104" fill="none" xmlns="http://www.w3.org/2000/svg">
<g filter="url(#filter0_d_2605_67558)">
<path d="M24.6081 74.4759L20.0076 69.2535C18.0141 66.9495 18.0141 63.7239 20.0076 61.4198L24.4547 56.1974C25.3748 55.1222 26.7549 54.5078 28.1351 54.5078H83.6473C84.7207 54.5078 85.4874 55.2758 85.4874 56.351V74.4759C85.4874 75.5511 84.7207 76.3191 83.6473 76.3191H28.2884C26.9083 76.3191 25.5281 75.7047 24.6081 74.4759Z" fill="#DDE1F0"/>
</g>
<path d="M68.0059 70.0227V60.6531C68.0059 59.5779 68.9259 58.6562 69.9994 58.6562H79.3536C80.4271 58.6562 81.3472 59.5779 81.3472 60.6531V70.0227C81.3472 71.0979 80.4271 72.0195 79.3536 72.0195H69.9994C68.9259 72.1731 68.0059 71.2515 68.0059 70.0227Z" fill="#C5CCDE"/>
<path d="M50.3706 70.0227V60.6531C50.3706 59.5779 51.2907 58.6562 52.3641 58.6562H61.7184C62.7918 58.6562 63.7119 59.5779 63.7119 60.6531V70.0227C63.7119 71.0979 62.7918 72.0195 61.7184 72.0195H52.3641C51.444 72.1731 50.3706 71.2515 50.3706 70.0227Z" fill="#C5CCDE"/>
<path d="M32.889 70.0227V60.6531C32.889 59.5779 33.8091 58.6562 34.8826 58.6562H44.2368C45.3103 58.6562 46.2304 59.5779 46.2304 60.6531V70.0227C46.2304 71.0979 45.3103 72.0195 44.2368 72.0195H34.8826C33.8091 72.1731 32.889 71.2515 32.889 70.0227Z" fill="#C5CCDE"/>
<g filter="url(#filter1_d_2605_67558)">
<path d="M35.036 76.7809L28.1353 76.3201C25.2217 76.1665 22.7681 73.7089 22.6148 70.7904L22.1547 63.8784C22.0014 62.496 22.6148 61.1136 23.5348 60.0384L62.7921 20.7166C63.5588 19.9486 64.6323 19.9486 65.399 20.7166L78.127 33.4655C78.8937 34.2335 78.8937 35.3087 78.127 36.0767L38.8697 75.3985C37.9496 76.3201 36.5695 76.9345 35.036 76.7809Z" fill="#DDE1F0"/>
</g>
<path d="M62.6389 42.8369L56.0449 36.2321C55.2782 35.4641 55.2782 34.0816 56.0449 33.3136L62.6389 26.7088C63.4056 25.9408 64.7858 25.9408 65.5525 26.7088L72.1465 33.3136C72.9132 34.0816 72.9132 35.4641 72.1465 36.2321L65.5525 42.8369C64.7858 43.6049 63.4056 43.6049 62.6389 42.8369Z" fill="#C5CCDE"/>
<path d="M50.2173 55.2744L43.6233 48.6696C42.8565 47.9015 42.8565 46.5191 43.6233 45.7511L50.2173 39.1463C50.984 38.3783 52.3641 38.3783 53.1309 39.1463L59.7249 45.7511C60.4916 46.5191 60.4916 47.9015 59.7249 48.6696L53.1309 55.2744C52.3641 56.0424 50.984 56.0424 50.2173 55.2744Z" fill="white"/>
<path d="M37.7964 67.7197L31.2024 61.1149C30.4356 60.3469 30.4356 58.9645 31.2024 58.1965L37.7964 51.5916C38.5631 50.8236 39.9432 50.8236 40.71 51.5916L47.304 58.1965C48.0707 58.9645 48.0707 60.3469 47.304 61.1149L40.71 67.7197C39.9432 68.4877 38.7164 68.4877 37.7964 67.7197Z" fill="#C5CCDE"/>
<g filter="url(#filter2_d_2605_67558)">
<path d="M38.5628 70.3284L33.3489 74.7828C31.0487 76.7796 27.8284 76.7796 25.5281 74.7828L20.3143 70.3284C19.2408 69.4068 18.6274 68.0244 18.6274 66.642V11.0385C18.6274 9.96332 19.3942 9.19531 20.4676 9.19531H38.4094C39.4829 9.19531 40.2496 9.96332 40.2496 11.0385V66.642C40.2496 68.0244 39.6362 69.4068 38.5628 70.3284Z" fill="white"/>
</g>
<path d="M34.1155 26.8633H24.7612C23.6878 26.8633 22.7677 25.9417 22.7677 24.8665V15.4968C22.7677 14.4216 23.6878 13.5 24.7612 13.5H34.1155C35.1889 13.5 36.109 14.4216 36.109 15.4968V24.7128C36.109 25.9417 35.1889 26.8633 34.1155 26.8633Z" fill="#7894FF"/>
<path d="M34.1155 44.3711H24.7612C23.6878 44.3711 22.7677 43.4495 22.7677 42.3743V33.0046C22.7677 31.9294 23.6878 31.0078 24.7612 31.0078H34.1155C35.1889 31.0078 36.109 31.9294 36.109 33.0046V42.3743C36.109 43.4495 35.1889 44.3711 34.1155 44.3711Z" fill="url(#paint0_linear_2605_67558)"/>
<path d="M34.1155 61.8867H24.7612C23.6878 61.8867 22.7677 60.9651 22.7677 59.8899V50.5202C22.7677 49.445 23.6878 48.5234 24.7612 48.5234H34.1155C35.1889 48.5234 36.109 49.445 36.109 50.5202V59.8899C36.109 60.9651 35.1889 61.8867 34.1155 61.8867Z" fill="#DDE1F0"/>
<path d="M29.5152 73.0919C31.2938 73.0919 32.7356 71.6477 32.7356 69.8662C32.7356 68.0848 31.2938 66.6406 29.5152 66.6406C27.7367 66.6406 26.2949 68.0848 26.2949 69.8662C26.2949 71.6477 27.7367 73.0919 29.5152 73.0919Z" fill="#DDE1F0"/>
<defs>
<filter id="filter0_d_2605_67558" x="0.871574" y="45.6874" width="102.257" height="57.0943" filterUnits="userSpaceOnUse" color-interpolation-filters="sRGB">
<feFlood flood-opacity="0" result="BackgroundImageFix"/>
<feColorMatrix in="SourceAlpha" type="matrix" values="0 0 0 0 0 0 0 0 0 0 0 0 0 0 0 0 0 0 127 0" result="hardAlpha"/>
<feOffset dy="8.82044"/>
<feGaussianBlur stdDeviation="8.82044"/>
<feColorMatrix type="matrix" values="0 0 0 0 0.397708 0 0 0 0 0.47749 0 0 0 0 0.575 0 0 0 0.18 0"/>
<feBlend mode="normal" in2="BackgroundImageFix" result="effect1_dropShadow_2605_67558"/>
<feBlend mode="normal" in="SourceGraphic" in2="effect1_dropShadow_2605_67558" result="shape"/>
</filter>
<filter id="filter1_d_2605_67558" x="4.49035" y="11.3202" width="91.8526" height="91.9458" filterUnits="userSpaceOnUse" color-interpolation-filters="sRGB">
<feFlood flood-opacity="0" result="BackgroundImageFix"/>
<feColorMatrix in="SourceAlpha" type="matrix" values="0 0 0 0 0 0 0 0 0 0 0 0 0 0 0 0 0 0 127 0" result="hardAlpha"/>
<feOffset dy="8.82044"/>
<feGaussianBlur stdDeviation="8.82044"/>
<feColorMatrix type="matrix" values="0 0 0 0 0.397708 0 0 0 0 0.47749 0 0 0 0 0.575 0 0 0 0.18 0"/>
<feBlend mode="normal" in2="BackgroundImageFix" result="effect1_dropShadow_2605_67558"/>
<feBlend mode="normal" in="SourceGraphic" in2="effect1_dropShadow_2605_67558" result="shape"/>
</filter>
<filter id="filter2_d_2605_67558" x="0.986565" y="0.374874" width="56.9039" height="102.368" filterUnits="userSpaceOnUse" color-interpolation-filters="sRGB">
<feFlood flood-opacity="0" result="BackgroundImageFix"/>
<feColorMatrix in="SourceAlpha" type="matrix" values="0 0 0 0 0 0 0 0 0 0 0 0 0 0 0 0 0 0 127 0" result="hardAlpha"/>
<feOffset dy="8.82044"/>
<feGaussianBlur stdDeviation="8.82044"/>
<feColorMatrix type="matrix" values="0 0 0 0 0.397708 0 0 0 0 0.47749 0 0 0 0 0.575 0 0 0 0.18 0"/>
<feBlend mode="normal" in2="BackgroundImageFix" result="effect1_dropShadow_2605_67558"/>
<feBlend mode="normal" in="SourceGraphic" in2="effect1_dropShadow_2605_67558" result="shape"/>
</filter>
<linearGradient id="paint0_linear_2605_67558" x1="22.6355" y1="37.6619" x2="35.8159" y2="37.6619" gradientUnits="userSpaceOnUse">
<stop stopColor="#39B54A"/>
<stop offset="1" stopColor="#009444"/>
</linearGradient>
</defs>
</svg>
