<svg width="142" height="125" viewBox="0 0 142 125" fill="none" xmlns="http://www.w3.org/2000/svg">
<path d="M63.8174 3.19358C64.5641 3.19358 65.1694 2.5906 65.1694 1.84679C65.1694 1.10298 64.5641 0.5 63.8174 0.5C63.0707 0.5 62.4653 1.10298 62.4653 1.84679C62.4653 2.5906 63.0707 3.19358 63.8174 3.19358Z" fill="url(#paint0_linear_11352_9906)"/>
<path d="M108.19 15.7185C109.126 15.7185 109.958 14.9933 109.958 13.9573C109.958 13.0249 109.23 12.1961 108.19 12.1961C107.254 12.1961 106.422 12.9213 106.422 13.9573C106.422 14.9933 107.254 15.7185 108.19 15.7185Z" fill="url(#paint1_linear_11352_9906)"/>
<path d="M25.3208 103.417C26.2569 103.417 27.0889 102.691 27.0889 101.655C27.0889 100.723 26.3609 99.8942 25.3208 99.8942C24.3848 99.8942 23.5527 100.619 23.5527 101.655C23.5527 102.588 24.2808 103.417 25.3208 103.417Z" fill="url(#paint2_linear_11352_9906)"/>
<path d="M31.1016 20.5148C32.0302 20.2142 32.5384 19.2206 32.2365 18.2956C31.9347 17.3705 30.9372 16.8644 30.0086 17.1651C29.08 17.4657 28.5718 18.4593 28.8737 19.3843C29.1755 20.3093 30.173 20.8155 31.1016 20.5148Z" fill="#EAEEF9"/>
<path d="M40.6225 103.507C41.3009 102.889 41.3483 101.841 40.7283 101.165C40.1084 100.489 39.0558 100.442 38.3773 101.059C37.6989 101.677 37.6515 102.725 38.2715 103.401C38.8915 104.077 39.9441 104.124 40.6225 103.507Z" fill="#EAEEF9"/>
<path d="M119.362 37.631V76.688C119.362 77.3096 119.362 77.8276 119.258 78.4492C118.738 82.9039 116.138 86.8407 112.186 89.1199L78.2801 108.597C75.0559 110.461 71.2078 110.979 67.6716 110.047C66.3196 109.736 65.0715 109.218 63.9275 108.597L29.918 89.0163C27.3179 87.5659 25.3418 85.3903 24.0938 82.8003C23.1577 80.9355 22.6377 78.7599 22.6377 76.5844V37.631C22.6377 35.559 23.0537 33.5906 23.8857 31.7258C25.1338 29.0323 27.1099 26.7531 29.814 25.1991L63.8235 5.72241C67.1516 3.85762 70.8958 3.33962 74.5359 4.27202C75.784 4.58282 77.032 5.10081 78.2801 5.72241L112.186 25.1991C115.202 26.9603 117.386 29.6539 118.53 32.8654C119.05 34.3158 119.362 35.9734 119.362 37.631Z" fill="#EAEEF9"/>
<path d="M107.733 108.442C109.935 106.4 110.081 103.045 108.027 100.857C105.972 98.6692 102.596 98.5233 100.247 100.565C98.0456 102.607 97.8988 105.962 99.9537 108.15C102.009 110.338 105.385 110.484 107.733 108.442Z" fill="#EAEEF9"/>
<g filter="url(#filter0_d_11352_9906)">
<path d="M114.8 60.7889C114.8 66.906 112.138 72.3618 107.979 76.1643C106.814 77.1562 105.65 78.1482 104.152 78.9748C100.991 80.7934 97.4975 81.7853 93.671 81.7853C89.8445 81.7853 86.1843 80.7934 83.1897 78.9748C82.6906 78.6441 82.1915 78.4788 81.6923 78.1482C76.2021 74.3457 72.542 68.0633 72.542 60.9543C72.542 49.3815 82.0251 39.9579 93.671 39.9579C105.317 39.9579 114.8 49.2161 114.8 60.7889Z" fill="#D7DCEB"/>
</g>
<path d="M107.813 75.5031C106.981 73.8498 105.65 72.1966 103.82 71.2046C102.988 70.7087 101.99 70.5433 100.826 70.378L99.9937 70.378C98.1636 70.378 97.9972 70.0473 97.9972 70.0473L97.9972 67.0715C98.9955 66.2449 99.8273 65.4182 100.493 64.4263C101.158 63.4343 101.657 62.4424 101.99 61.2851C103.155 60.9544 103.987 59.9625 103.82 58.8052C103.82 58.3092 103.487 57.8132 103.487 57.3173C103.487 56.9866 103.487 56.8213 103.487 56.4906C103.487 56.3253 103.487 56.16 103.487 55.9946C103.487 55.8293 103.487 55.664 103.487 55.4987C103.321 54.672 103.155 53.6801 102.489 52.6881C100.992 49.8776 97.9972 48.059 94.6699 48.059C94.0044 48.059 93.3389 48.2243 92.6734 48.2243C91.5088 48.555 90.3442 49.051 89.346 49.7123C89.1797 49.8776 89.0133 50.0429 88.8469 50.2082C88.8469 50.2082 88.6805 50.2082 88.6805 50.3736C87.6823 51.3655 86.8505 52.5228 86.3514 54.0107C85.8522 55.3333 85.8523 56.8213 86.0186 58.1439C86.0186 58.1439 86.0186 58.1439 86.0186 58.3092C86.0186 58.3092 86.0186 58.3092 86.0186 58.4745C86.0186 58.8052 86.185 58.6399 86.0186 58.9705C86.0186 59.1358 85.8523 59.1358 85.8523 59.3012C85.6859 59.6318 85.5195 60.2931 85.6859 60.9544C86.185 62.277 87.0168 62.1117 87.8487 62.773C87.8487 62.773 87.8487 62.773 87.6823 62.9383L86.6841 63.269C82.5249 64.5916 82.8577 67.4021 84.5214 69.5514C85.1868 70.378 86.0186 70.3779 87.6823 70.7086C87.1832 70.7086 85.3531 72.3619 85.1868 72.5272C83.3567 74.0152 82.1921 76.1644 81.8594 78.1483C81.8594 78.3136 81.8594 78.3136 81.8594 78.479C82.3585 78.8096 82.8576 79.1403 83.3567 79.3056L104.486 79.3056C105.817 78.479 107.148 77.6523 108.312 76.4951C107.979 75.9991 107.813 75.6684 107.813 75.5031ZM91.8416 69.5514C91.5088 69.2207 91.3425 69.2207 91.1761 69.0554C90.8433 68.8901 90.677 68.7247 90.3442 68.5594C90.1779 68.5594 90.1779 68.3941 90.0115 68.3941C89.1797 67.8981 88.3478 67.4021 88.3478 66.7408C88.3478 66.4102 88.6805 65.9142 89.1797 65.5836C89.346 65.9142 89.6788 66.2449 90.0115 66.5755C90.3442 66.7408 90.5106 67.0715 90.8434 67.2368C91.0097 67.4021 91.1761 67.5675 91.3425 67.5675L91.5088 67.5675C91.5088 67.5675 91.6752 67.5675 91.6752 67.7328L91.6752 69.5514L91.8416 69.5514Z" fill="white"/>
<path d="M107.979 76.1643C104.152 79.6361 99.1612 81.7854 93.671 81.7854C89.179 81.7854 85.0198 80.4628 81.6924 78.1482C81.6924 77.9829 81.6924 77.9829 81.6924 77.8176C82.0251 75.6683 83.1897 73.5191 85.0198 72.0312C85.3525 71.8658 87.7818 70.2917 88.1145 70.2917C86.6172 69.9611 85.1862 69.8819 84.5207 69.0553L87.6817 69.7166C89.0127 71.7005 91.3418 72.8578 94.0037 72.8578C96.1666 72.8578 98.163 72.0312 99.494 70.5432C99.6603 70.5432 99.8267 70.5432 99.9931 70.5432C100.159 70.5432 100.492 70.5432 100.825 70.5432C101.99 70.5432 102.988 70.8739 103.82 71.2045C105.65 72.0312 106.981 73.6844 107.812 75.503C107.812 75.6683 107.979 75.999 107.979 76.1643Z" fill="#0059DE"/>
<path d="M97.9964 67.2367L97.9964 70.0473L89.8442 70.3779L90.3434 68.5593C90.5097 68.5593 90.5097 68.7246 90.6761 68.7246C91.0088 68.89 91.1752 69.0553 91.5079 69.2206C91.6743 69.3859 91.8407 69.386 92.0071 69.5513C92.0071 69.5513 92.007 69.5513 92.1734 69.7166L92.1734 67.898C92.1734 67.898 92.0071 67.898 92.0071 67.7327C93.338 68.394 95.3344 68.7247 97.9964 67.2367Z" fill="url(#paint3_linear_11352_9906)"/>
<path d="M103.32 55.9945C101.657 56.4905 99.9928 56.8212 98.3291 56.6558C95.6672 56.4905 93.0053 55.3332 91.0089 53.5147C90.3434 55.4986 88.6797 56.9865 86.6833 57.8131C86.3505 57.9785 86.1841 57.9785 85.8514 58.1438C85.8514 58.1438 85.8514 58.1438 85.8514 57.9785C85.685 56.4905 85.8514 55.1679 86.1841 53.68C86.6832 52.3574 87.5151 51.0348 88.5133 50.0428C88.5133 50.0428 88.6797 50.0428 88.6797 49.8775C88.8461 49.7122 89.0124 49.5468 89.1788 49.3815C90.177 48.7202 91.3416 48.2242 92.5062 47.8936C93.1717 47.7282 93.8372 47.7282 94.5026 47.7282C97.83 47.7282 100.825 49.5468 102.322 52.3574C102.821 53.5147 103.154 54.3413 103.32 55.1679C103.32 55.6639 103.32 55.8292 103.32 55.9945Z" fill="#1C3754"/>
<path d="M93.0047 75.007C92.3392 75.8336 91.0082 75.999 89.8436 75.8336C91.0082 74.6764 90.3428 70.8739 86.1835 71.3698C80.3606 70.2126 81.026 64.4261 86.6826 62.6076L87.6808 62.2769L87.8472 62.4422C88.3463 63.5995 88.8454 64.5915 89.5109 65.4181C87.1817 67.402 90.3428 67.898 92.0064 69.3859C93.171 70.2126 94.3356 73.5191 93.0047 75.007Z" fill="#1C3754"/>
<path d="M114.8 60.7889C114.8 66.906 112.138 72.3618 107.979 76.1643C104.152 79.6361 99.1612 81.7853 93.671 81.7853C89.179 81.7853 85.0197 80.4627 81.6923 78.1482C76.2021 74.3457 72.542 68.0633 72.542 60.9543C72.542 49.3815 82.0251 39.9579 93.671 39.9579C105.317 39.9579 114.8 49.2161 114.8 60.7889Z" stroke="white" stroke-width="1.80365" stroke-miterlimit="10" stroke-linecap="round" stroke-linejoin="round"/>
<path d="M68.3871 64.0132C68.3871 69.3987 66.2193 74.4252 62.7869 78.0156C62.4256 78.3746 62.245 78.5541 61.8837 78.9131C58.2706 82.324 53.3931 84.2987 47.9736 84.2987C43.6379 84.2987 39.6636 83.042 36.2313 80.7083C35.328 79.9902 34.4248 79.2722 33.5215 78.5541C29.7279 74.7843 27.3794 69.7578 27.3794 64.0132C27.3794 52.7037 36.5926 43.5483 47.7929 43.5483C59.1739 43.5483 68.3871 52.7037 68.3871 64.0132Z" fill="#E9F0F8"/>
<g filter="url(#filter1_d_11352_9906)">
<path d="M68.3871 64.0132C68.3871 69.9373 65.858 75.3228 61.8837 78.9131C58.2706 82.324 53.3931 84.2987 47.9736 84.2987C43.6379 84.2987 39.6636 83.042 36.2313 80.7083C30.8118 77.118 27.3794 70.8349 27.3794 64.0132C27.3794 52.7037 36.5926 43.5483 47.7929 43.5483C58.9932 43.5483 68.3871 52.7037 68.3871 64.0132Z" fill="#D7DCEB"/>
</g>
<path d="M62.6062 78.0155C62.2449 78.3746 62.0643 78.5541 61.703 78.9131C58.09 82.3239 53.2124 84.2986 47.7929 84.2986C43.4573 84.2986 39.4829 83.042 36.0506 80.7083C35.1473 79.9902 34.2441 79.2722 33.3408 78.5541C33.7021 78.0155 34.6054 77.6565 36.2312 76.9384L36.9538 76.7589C38.2184 76.2204 39.8442 75.6818 42.0121 74.7842C42.3734 74.6047 42.554 74.4252 42.9153 74.2457C43.096 74.0662 43.096 73.8866 43.2766 73.7071C43.4573 73.5276 43.4573 73.1686 43.4573 72.8095L43.4573 68.6807L43.2766 68.5011C42.9153 67.9626 42.7347 67.424 42.554 66.706L42.1927 66.5264C41.1088 66.706 41.2894 65.6289 40.9281 63.4747C40.7475 62.5771 40.9281 62.3976 41.2894 62.218L41.6508 61.6795C40.9281 59.8843 40.5668 58.4482 40.5668 57.1916C40.5668 55.2169 41.4701 53.7807 42.7347 53.2422C42.012 51.8061 42.0121 51.2675 42.0121 51.2675C42.0121 51.2675 46.3477 51.9856 47.7929 51.6265C49.5994 51.2675 52.4898 51.6265 53.5737 54.1398C55.3802 54.8578 56.1028 55.9349 56.2834 57.1916C56.4641 59.1663 55.3802 61.3205 55.1995 62.0385C55.1995 62.0385 55.1995 62.0385 55.1995 62.218C55.5608 62.3976 55.5608 62.5771 55.5608 63.2951C55.3802 65.2698 55.3802 66.706 54.2963 66.3469L53.393 67.9626C53.393 68.1421 53.393 68.3216 53.393 68.3216C53.393 68.6807 53.393 69.2192 53.393 72.63C53.393 72.9891 53.5737 73.3481 53.7543 73.7071C53.7543 73.8866 53.935 73.8866 53.935 74.0662C54.1156 74.2457 54.4769 74.4252 54.6576 74.6047C57.1867 75.6818 58.8126 76.2204 60.2578 76.7589C61.3417 77.2975 62.2449 77.6565 62.6062 78.0155Z" fill="white"/>
<path d="M62.6062 78.0157C62.2449 78.3747 62.0643 78.5542 61.703 78.9133C58.09 82.3241 53.2124 84.2988 47.7929 84.2988C43.4573 84.2988 39.4829 83.0422 36.0506 80.7084C35.1473 79.9904 34.2441 79.2723 33.3408 78.5542C33.7021 78.0157 34.6054 77.6567 36.2312 76.9386L36.9538 76.7591C38.2184 76.2205 39.8442 75.682 42.0121 74.7844C42.3734 74.6049 42.554 74.4253 42.9153 74.2458C44.1799 75.8615 46.167 77.1181 48.3348 77.1181C50.5026 77.1181 52.4898 76.041 53.7543 74.4254C53.935 74.6049 54.2963 74.7844 54.4769 74.9639C57.006 76.041 58.6319 76.5796 60.0771 77.1181C61.3417 77.2976 62.2449 77.6567 62.6062 78.0157Z" fill="#FFB60A"/>
<path d="M55.1998 62.0386C55.1998 61.5 55.0191 60.9615 54.8385 60.4229C54.8385 60.4229 54.8385 60.2434 54.6578 60.2434C53.9352 58.4482 52.1287 57.7302 50.3222 57.7302C45.806 57.5506 45.4447 58.2687 43.9995 57.0121C44.3608 57.7302 44.5414 58.6277 43.8188 59.8844C43.2769 60.7819 42.3736 61.141 41.651 61.5C39.6638 56.8326 40.5671 53.9603 42.7349 53.0627C42.0123 51.6266 42.0123 51.088 42.0123 51.088C42.0123 51.088 46.3479 51.8061 47.7931 51.4471C49.5996 51.088 52.49 51.4471 53.5739 53.9603C55.3804 54.6784 56.103 55.7555 56.2837 57.0121C56.4643 58.9868 55.3804 61.141 55.1998 62.0386Z" fill="#1C3754"/>
<path d="M43.4575 72.6301L43.4575 68.5012L43.2769 68.3217L43.2769 68.1422C43.4575 68.5012 43.8188 68.8602 44.1801 69.2193L47.4318 71.553C48.1544 72.2711 49.2383 72.2711 50.1416 71.553L53.2126 68.8602C53.3933 68.8602 53.3933 68.6807 53.5739 68.5012C53.5739 68.8602 53.5739 69.3988 53.5739 72.8096C53.5739 72.9891 53.5739 73.1686 53.5739 73.3482L43.4575 73.3482C43.2769 72.9891 43.4575 72.8096 43.4575 72.6301Z" fill="url(#paint4_linear_11352_9906)"/>
<path d="M68.3871 64.0132C68.3871 69.9373 65.858 75.3228 61.8837 78.9131C58.2706 82.324 53.3931 84.2987 47.9736 84.2987C43.6379 84.2987 39.6636 83.042 36.2313 80.7083C30.8118 77.118 27.3794 70.8349 27.3794 64.0132C27.3794 52.7037 36.5926 43.5483 47.7929 43.5483C58.9932 43.5483 68.3871 52.7037 68.3871 64.0132Z" stroke="white" stroke-width="1.57904" stroke-miterlimit="10" stroke-linecap="round" stroke-linejoin="round"/>
<path d="M91.8714 37.0857C91.8714 42.4712 89.7036 47.4976 86.2713 51.088C85.91 51.447 85.7293 51.6265 85.368 51.9856C81.755 55.3964 76.8774 57.3711 71.4579 57.3711C67.1223 57.3711 63.148 56.1145 59.7156 53.7807C58.8124 53.0627 57.9091 52.3446 57.0059 51.6265C53.2122 47.8567 50.8638 42.8302 50.8638 37.0857C50.8638 25.7761 60.0769 16.6207 71.2773 16.6207C82.6583 16.8002 91.8714 25.7761 91.8714 37.0857Z" fill="#E9F0F8"/>
<g filter="url(#filter2_d_11352_9906)">
<path d="M91.8714 37.0857C91.8714 43.0097 89.3423 48.3952 85.368 51.9856C81.755 55.3964 76.8774 57.3711 71.4579 57.3711C67.1223 57.3711 63.148 56.1145 59.7156 53.7807C54.2961 50.1904 50.8638 43.9073 50.8638 37.0857C50.8638 25.7761 60.0769 16.6207 71.2773 16.6207C82.4776 16.6207 91.8714 25.7761 91.8714 37.0857Z" fill="#D7DCEB"/>
</g>
<path d="M86.0906 51.088C85.7293 51.447 85.5486 51.6265 85.1873 51.9856C81.5743 55.3964 76.6968 57.3711 71.2772 57.3711C66.9416 57.3711 62.9673 56.1145 59.535 53.7807C58.6317 53.0627 57.7284 52.3446 56.8252 51.6265C57.1865 51.088 58.0897 50.7289 59.7156 50.0109L60.4382 49.8314C61.7028 49.2928 63.3286 48.7543 65.4964 47.8567C65.8577 47.6772 66.0384 47.4976 66.3997 47.3181C66.5803 47.1386 66.5803 46.9591 66.761 46.7796C66.9416 46.6001 66.9416 46.241 66.9416 45.882L66.9416 41.7531L66.761 41.5736C66.3997 41.035 66.219 40.4965 66.0384 39.7784L65.6771 39.5989C64.5932 39.7784 64.7738 38.7013 64.4125 36.5471C64.2319 35.6495 64.4125 35.47 64.7738 35.2905L65.1351 34.7519C64.4125 32.9568 64.0512 31.5206 64.0512 30.264C64.0512 28.2893 64.9545 26.8532 66.219 26.3146C65.4964 24.8785 65.4964 24.3399 65.4964 24.3399C65.4964 24.3399 69.832 25.058 71.2772 24.699C73.0837 24.3399 75.9742 24.699 77.0581 27.2122C78.8646 27.9303 79.5872 29.0074 79.7678 30.264C79.9485 32.2387 78.8646 34.3929 78.6839 35.111C78.6839 35.111 78.6839 35.111 78.6839 35.2905C79.0452 35.2905 79.0452 35.47 79.0452 36.3676C78.8646 38.3423 78.8646 39.7784 77.7807 39.4194L76.8774 41.035C76.8774 41.2145 76.8774 41.3941 76.8774 41.3941C76.8774 41.7531 76.8774 42.2916 76.8774 45.7025C76.8774 46.0615 77.0581 46.4205 77.2387 46.7796C77.2387 46.9591 77.4194 46.9591 77.4194 47.1386C77.6 47.3181 77.9613 47.4976 78.142 47.6772C80.6711 48.7543 82.2969 49.2928 83.7421 49.8314C84.826 50.3699 85.5486 50.7289 86.0906 51.088Z" fill="white"/>
<path d="M86.0906 51.088C85.7293 51.447 85.5486 51.6265 85.1873 51.9856C81.5743 55.3964 76.6968 57.3711 71.2772 57.3711C66.9416 57.3711 62.9673 56.1145 59.535 53.7807C58.6317 53.0627 57.7284 52.3446 56.8252 51.6265C57.1865 51.088 58.0897 50.729 59.7156 50.0109L60.4382 49.8314C61.7028 49.2928 63.3286 48.7543 65.4964 47.8567C65.8577 47.6772 66.0384 47.4977 66.3997 47.3181C67.6642 48.9338 69.6514 50.1904 71.8192 50.1904C73.987 50.1904 76.3729 48.5813 77.6374 46.9656C77.8181 47.1451 78.8792 47.7344 79.0598 47.9139C81.589 48.991 82.356 49.2719 83.8012 49.8104C85.0658 49.9899 85.5486 50.729 86.0906 51.088Z" fill="url(#paint5_linear_11352_9906)"/>
<path d="M78.6837 35.111C78.6837 34.5724 78.503 34.0339 78.3224 33.4953C78.3224 33.4953 78.3224 33.3158 78.1417 33.3158C77.2385 31.7002 75.432 30.9821 73.8061 30.9821C69.2898 30.8026 68.9285 31.5207 67.4833 30.264C67.8446 30.9821 68.0253 31.8797 67.3027 33.1363C66.7607 34.0339 65.8575 34.3929 65.1349 34.752C63.1477 30.0845 64.051 27.2123 66.2188 26.3147C65.4962 24.8785 65.4962 24.34 65.4962 24.34C65.4962 24.34 69.8318 25.058 71.277 24.699C73.0835 24.34 75.9739 24.699 77.0578 27.2123C78.8643 27.9303 79.5869 29.0074 79.7676 30.264C79.9482 32.0592 78.8643 34.2134 78.6837 35.111Z" fill="#1C3754"/>
<path d="M66.7607 45.7025L66.7607 41.5736L66.5801 41.3941L66.5801 41.2146C66.7607 41.5736 67.122 41.9327 67.4833 42.2917L70.735 44.6254C71.4576 45.3435 72.5416 45.3435 73.4448 44.6254L76.5159 41.9327C76.6965 41.9327 76.6965 41.7531 76.8772 41.5736C76.8772 41.9327 76.8772 42.4712 76.8772 45.882C76.8772 46.0615 76.8772 46.2411 76.8772 46.4206L66.7607 46.4206C66.7607 46.0615 66.7607 45.882 66.7607 45.7025Z" fill="url(#paint6_linear_11352_9906)"/>
<path d="M91.8714 37.0857C91.8714 43.0097 89.3423 48.3952 85.368 51.9856C81.755 55.3964 76.8774 57.3711 71.4579 57.3711C67.1223 57.3711 63.148 56.1145 59.7156 53.7807C54.2961 50.1904 50.8638 43.9073 50.8638 37.0857C50.8638 25.7761 60.0769 16.6207 71.2773 16.6207C82.4776 16.6207 91.8714 25.7761 91.8714 37.0857Z" stroke="white" stroke-width="1.57904" stroke-miterlimit="10" stroke-linecap="round" stroke-linejoin="round"/>
<defs>
<filter id="filter0_d_11352_9906" x="45.9466" y="26.6602" width="95.4487" height="95.0183" filterUnits="userSpaceOnUse" color-interpolation-filters="sRGB">
<feFlood flood-opacity="0" result="BackgroundImageFix"/>
<feColorMatrix in="SourceAlpha" type="matrix" values="0 0 0 0 0 0 0 0 0 0 0 0 0 0 0 0 0 0 127 0" result="hardAlpha"/>
<feOffset dy="13.2977"/>
<feGaussianBlur stdDeviation="13.2977"/>
<feColorMatrix type="matrix" values="0 0 0 0 0.397708 0 0 0 0 0.47749 0 0 0 0 0.575 0 0 0 0.18 0"/>
<feBlend mode="normal" in2="BackgroundImageFix" result="effect1_dropShadow_11352_9906"/>
<feBlend mode="normal" in="SourceGraphic" in2="effect1_dropShadow_11352_9906" result="shape"/>
</filter>
<filter id="filter1_d_11352_9906" x="0.783968" y="30.2506" width="94.1987" height="93.9412" filterUnits="userSpaceOnUse" color-interpolation-filters="sRGB">
<feFlood flood-opacity="0" result="BackgroundImageFix"/>
<feColorMatrix in="SourceAlpha" type="matrix" values="0 0 0 0 0 0 0 0 0 0 0 0 0 0 0 0 0 0 127 0" result="hardAlpha"/>
<feOffset dy="13.2977"/>
<feGaussianBlur stdDeviation="13.2977"/>
<feColorMatrix type="matrix" values="0 0 0 0 0.397708 0 0 0 0 0.47749 0 0 0 0 0.575 0 0 0 0.18 0"/>
<feBlend mode="normal" in2="BackgroundImageFix" result="effect1_dropShadow_11352_9906"/>
<feBlend mode="normal" in="SourceGraphic" in2="effect1_dropShadow_11352_9906" result="shape"/>
</filter>
<filter id="filter2_d_11352_9906" x="24.2683" y="3.323" width="94.1987" height="93.9412" filterUnits="userSpaceOnUse" color-interpolation-filters="sRGB">
<feFlood flood-opacity="0" result="BackgroundImageFix"/>
<feColorMatrix in="SourceAlpha" type="matrix" values="0 0 0 0 0 0 0 0 0 0 0 0 0 0 0 0 0 0 127 0" result="hardAlpha"/>
<feOffset dy="13.2977"/>
<feGaussianBlur stdDeviation="13.2977"/>
<feColorMatrix type="matrix" values="0 0 0 0 0.397708 0 0 0 0 0.47749 0 0 0 0 0.575 0 0 0 0.18 0"/>
<feBlend mode="normal" in2="BackgroundImageFix" result="effect1_dropShadow_11352_9906"/>
<feBlend mode="normal" in="SourceGraphic" in2="effect1_dropShadow_11352_9906" result="shape"/>
</filter>
<linearGradient id="paint0_linear_11352_9906" x1="62.404" y1="1.88844" x2="65.1887" y2="1.88844" gradientUnits="userSpaceOnUse">
<stop stop-color="#FF66A9"/>
<stop offset="1" stop-color="#F53689"/>
</linearGradient>
<linearGradient id="paint1_linear_11352_9906" x1="106.387" y1="13.95" x2="109.88" y2="13.95" gradientUnits="userSpaceOnUse">
<stop stop-color="#39B54A"/>
<stop offset="1" stop-color="#009444"/>
</linearGradient>
<linearGradient id="paint2_linear_11352_9906" x1="23.5177" y1="101.648" x2="27.0112" y2="101.648" gradientUnits="userSpaceOnUse">
<stop stop-color="#39B54A"/>
<stop offset="1" stop-color="#009444"/>
</linearGradient>
<linearGradient id="paint3_linear_11352_9906" x1="93.9175" y1="69.9295" x2="93.9175" y2="68.6671" gradientUnits="userSpaceOnUse">
<stop stop-color="white"/>
<stop offset="0.9913" stop-color="#E6EDF7"/>
</linearGradient>
<linearGradient id="paint4_linear_11352_9906" x1="48.2664" y1="73.2733" x2="48.2664" y2="70.3994" gradientUnits="userSpaceOnUse">
<stop stop-color="white"/>
<stop offset="0.9913" stop-color="#E6EDF7"/>
</linearGradient>
<linearGradient id="paint5_linear_11352_9906" x1="56.5351" y1="52.1469" x2="85.4476" y2="52.1469" gradientUnits="userSpaceOnUse">
<stop stop-color="#39B54A"/>
<stop offset="1" stop-color="#009444"/>
</linearGradient>
<linearGradient id="paint6_linear_11352_9906" x1="71.7228" y1="46.3651" x2="71.7228" y2="43.4912" gradientUnits="userSpaceOnUse">
<stop stop-color="white"/>
<stop offset="0.9913" stop-color="#E6EDF7"/>
</linearGradient>
</defs>
</svg>
