<svg width="124" height="88" viewBox="0 0 124 88" fill="none" xmlns="http://www.w3.org/2000/svg">
<path d="M88.4538 81.1758H13.9309V10.8453H109.587V81.1758H99.453H88.4538Z" fill="#EAEEF9"/>
<path opacity="0.5" d="M88.4538 81.1758H13.9309V10.8453H109.587V81.1758H99.453H88.4538Z" fill="url(#paint0_linear_14053_3209)"/>
<path d="M119.349 18.1539V17.7757C119.349 17.3976 119.225 17.0195 119.101 16.5153C118.854 16.0112 118.483 15.507 117.989 15.1289L109.832 9.33103H14.2997L1.81747 15.2549C1.19954 15.507 0.705189 16.0112 0.458015 16.5153C0.210842 17.0195 0.0872545 17.5237 0.0872545 18.1539C-0.407093 23.0694 3.4241 27.859 8.61475 27.859C13.311 27.859 17.1422 23.8257 17.1422 19.0361C17.1422 23.9517 20.9734 27.859 25.6697 27.859C30.366 27.859 34.3208 23.4475 34.3208 18.532C34.3208 23.4475 38.0284 27.859 42.7247 27.859C47.1738 27.859 50.8814 24.2038 51.2522 19.6663C51.8701 24.7079 55.9485 27.985 59.7797 27.985C64.476 27.985 68.1836 24.0777 68.3072 19.2882C68.3072 19.4143 68.3072 19.5403 68.3072 19.6663V19.2882C70.5317 32.1443 85.2386 29.1194 85.2386 18.9101C85.2386 19.0361 85.2386 19.2882 85.2386 19.4143C85.2386 19.0361 85.3622 18.658 85.3622 18.2799C85.3622 22.6913 88.5754 26.7246 92.7774 27.4808C94.1368 27.6069 95.4963 27.4808 96.8557 27.1027C97.1029 26.9767 97.3501 26.9767 97.4737 26.8506C99.5746 25.9683 101.428 24.2038 102.17 21.5569C102.17 21.4309 102.294 21.3049 102.294 21.1788C102.417 20.9267 102.417 20.5486 102.541 20.2965C103.406 24.3298 106.743 27.6069 110.821 27.6069C116.382 27.859 119.966 22.6913 119.349 18.1539Z" fill="url(#paint1_linear_14053_3209)"/>
<path d="M102.788 19.0312C102.788 19.5354 102.788 20.1656 102.664 20.6697C102.664 20.9218 102.541 21.2999 102.417 21.552C102.417 21.6781 102.293 21.8041 102.293 21.9301C101.552 24.3249 99.8217 26.2155 97.5971 27.2238C97.35 27.3499 97.1028 27.3499 96.9792 27.4759C96.1141 27.854 95.1254 27.9801 94.2603 27.9801C93.7659 27.9801 93.3952 27.9801 92.9008 27.854C88.8225 27.0978 85.4856 23.0645 85.4856 18.6531C85.4856 19.0312 85.4856 19.4093 85.362 19.7875C85.362 19.7875 85.362 19.7875 85.362 19.9135V19.6614L85.4856 16.2583L81.9016 9.45216H95.6197L97.2264 11.2167L102.664 16.6365L102.788 19.0312Z" fill="white"/>
<path d="M34.3208 16.1323L34.4444 19.6614C34.4444 19.2833 34.3208 18.9052 34.3208 18.401C34.3208 23.3166 30.366 27.728 25.6697 27.728C20.9734 27.728 17.1422 23.9468 17.1422 19.0312C17.1422 19.2833 17.1422 19.4093 17.1422 19.5354L17.2658 16.5104L22.7036 11.2167L24.5574 9.45216H37.9048L34.3208 16.1323Z" fill="white"/>
<path d="M51.1297 16.3878L51.0061 19.917C51.0061 19.5388 51.1297 19.1607 51.1297 18.6566C51.1297 23.5721 55.0845 27.9835 59.7808 27.9835C64.4771 27.9835 68.3083 23.9503 68.3083 19.1607C68.3083 19.4128 68.3083 19.5388 68.3083 19.6649L68.1847 16.6399L66.8252 11.3462L66.2073 9.32958H53.1071L51.1297 16.3878Z" fill="white"/>
<path d="M109.586 3.90725V9.45302H14.3005V3.90725C14.3005 1.76456 16.0308 0 18.1317 0H105.878C107.856 0 109.586 1.76456 109.586 3.90725Z" fill="#D4DAE8"/>
<path opacity="0.4" d="M65.2192 34.1581H23.1997V71.34H65.2192V34.1581Z" fill="#1C3754"/>
<path d="M62.7465 36.6832H25.5469V68.8234H62.7465V36.6832Z" fill="white"/>
<path d="M36.5461 36.6832L25.5469 60.7569V48.9091L31.1083 36.6832H36.5461Z" fill="#EAEEF9"/>
<path d="M59.0393 36.6832L44.3324 68.8234H39.3889L39.0182 68.6974L53.6014 36.6832H59.0393Z" fill="#EAEEF9"/>
<path d="M62.7465 37.9436L48.534 68.8234H45.8151L60.6455 36.6832L62.7465 37.9436Z" fill="#EAEEF9"/>
<path opacity="0.4" d="M73.3744 34.1581V81.2972H100.811V34.1581H73.3744Z" fill="#1C3754"/>
<path d="M98.3391 36.6832H75.8463V58.11H98.3391V36.6832Z" fill="white"/>
<path d="M98.3391 60.6265H75.8463V78.7763H98.3391V60.6265Z" fill="white"/>
<path opacity="0.4" d="M49.1522 50.0371L42.8493 45.4996C42.8493 45.2476 42.8493 44.9955 42.8493 44.8694C42.7257 44.2392 42.1078 43.7351 41.4898 43.8611C40.7483 43.8611 40.1304 44.4913 40.1304 45.2476C40.1304 45.6257 40.254 46.0038 40.5011 46.2559L37.0407 53.1881C36.9171 53.3141 37.0407 53.5662 37.1643 53.5662H37.2879C37.4115 53.5662 37.535 53.4402 37.535 53.4402L40.9955 46.508C41.1191 46.508 41.2426 46.634 41.3662 46.634C41.737 46.634 42.1078 46.3819 42.3549 46.1298L48.6579 50.6673C48.7814 50.7933 49.0286 50.7933 49.1522 50.5412C49.2758 50.2892 49.2758 50.0371 49.1522 50.0371Z" fill="#1C3754"/>
<path d="M52.4894 58.1048L37.9061 61.886C37.2882 62.0121 36.6703 61.634 36.4231 61.0038L34.9401 54.9538C34.8165 54.3236 35.1872 53.6934 35.8052 53.4413L50.3884 49.6601C51.0063 49.5341 51.6243 49.9122 51.8715 50.5424L53.3545 56.5923C53.4781 57.2225 53.1073 57.8527 52.4894 58.1048Z" fill="#BCC5D6"/>
<path d="M39.1418 56.0916L48.658 53.6968C49.1523 53.5708 49.6467 53.8228 49.7703 54.327C49.8939 54.8312 49.6467 55.3353 49.1523 55.4614L39.6362 57.8561C39.1418 57.9822 38.6475 57.7301 38.5239 57.2259C38.4003 56.5957 38.771 56.2176 39.1418 56.0916Z" fill="white"/>
<path d="M74.8585 59.9968C75.3363 59.9968 75.7236 59.6017 75.7236 59.1145C75.7236 58.6272 75.3363 58.2322 74.8585 58.2322C74.3807 58.2322 73.9934 58.6272 73.9934 59.1145C73.9934 59.6017 74.3807 59.9968 74.8585 59.9968Z" fill="white"/>
<path opacity="0.3" d="M119.227 16.6391H0.459595C0.706768 16.1349 1.20112 15.6307 1.81905 15.3787L14.3013 9.45477H109.958L118.114 15.2526C118.609 15.6307 118.979 16.1349 119.227 16.6391Z" fill="url(#paint2_linear_14053_3209)"/>
<path d="M86.4767 36.6832L76.5898 58.11H75.8483V48.9091L81.4097 36.6832H86.4767Z" fill="#EAEEF9"/>
<path d="M89.8117 36.6832L80.0483 58.11H78.3181L88.0815 36.6832H89.8117Z" fill="#EAEEF9"/>
<path d="M98.3403 40.2134V46.7675L93.1497 58.1111H90.1836L98.3403 40.2134Z" fill="#EAEEF9"/>
<path d="M85.488 60.6265L78.0728 78.7763H75.8483V75.8774L82.0276 60.6265H85.488Z" fill="#EAEEF9"/>
<path d="M98.3394 63.9034L92.2837 78.7762H93.7667L98.3394 67.8107V63.9034Z" fill="#EAEEF9"/>
<path d="M95.8692 60.6265L88.454 78.7763H86.353L93.8918 60.6265H95.8692Z" fill="#EAEEF9"/>
<circle cx="108.343" cy="71.6124" r="15.6124" fill="#009444"/>
<path d="M106.037 68.4584C105.571 68.4584 105.189 68.8398 105.189 69.306V71.8489H102.646C102.18 71.8489 101.799 72.2304 101.799 72.6966C101.799 73.1628 102.18 73.5442 102.646 73.5442H105.189V76.0871C105.189 76.5533 105.571 76.9348 106.037 76.9348C106.503 76.9348 106.885 76.5533 106.885 76.0871V73.5442H109.427C109.894 73.5442 110.275 73.1628 110.275 72.6966C110.275 72.2304 109.894 71.8489 109.427 71.8489H106.885V69.306C106.885 68.8398 106.503 68.4584 106.037 68.4584ZM110.699 67.4327C110.699 67.9159 111.14 68.2804 111.614 68.1871L112.818 67.9498V76.0871C112.818 76.5533 113.199 76.9348 113.666 76.9348C114.132 76.9348 114.513 76.5533 114.513 76.0871V66.9919C114.513 66.441 114.005 66.0426 113.471 66.1697L111.292 66.6953C110.945 66.7716 110.699 67.0852 110.699 67.4327Z" fill="white"/>
<defs>
<linearGradient id="paint0_linear_14053_3209" x1="61.7233" y1="62.1726" x2="61.7233" y2="9.52997" gradientUnits="userSpaceOnUse">
<stop offset="0.00289017" stop-color="#606673" stop-opacity="0"/>
<stop offset="1" stop-color="#373C47"/>
</linearGradient>
<linearGradient id="paint1_linear_14053_3209" x1="-1.13889" y1="18.6196" x2="116.795" y2="18.6196" gradientUnits="userSpaceOnUse">
<stop stop-color="#39B54A"/>
<stop offset="1" stop-color="#009444"/>
</linearGradient>
<linearGradient id="paint2_linear_14053_3209" x1="59.8424" y1="16.629" x2="59.8424" y2="9.31675" gradientUnits="userSpaceOnUse">
<stop offset="0.00289017" stop-color="#3F5073" stop-opacity="0"/>
<stop offset="1" stop-color="#283247"/>
</linearGradient>
</defs>
</svg>
